<svg width="155" height="55" viewBox="0 0 155 55" fill="none" xmlns="http://www.w3.org/2000/svg">
<path d="M37.3628 12.6628L31.0953 44H22.4105L13.4122 29.4058L10.5023 44H0.205807L6.47325 12.6628H15.1581L24.1564 27.257L27.0663 12.6628H37.3628ZM51.2278 20.6314L50.5115 24.3023H63.7626L62.2405 31.9128H48.9446L48.1388 36.0314H63.8522L62.2405 44H36.1859L42.4533 12.6628H67.926L66.3144 20.6314H51.2278ZM123.128 12.6628L106.833 44H95.5066L93.7159 27.4808L85.1205 44H73.7944L70.0339 12.6628H80.4647L82.4793 30.525L91.7909 12.6628H101.505L103.296 30.7936L112.742 12.6628H123.128ZM131.652 44.7163C128.936 44.7163 126.384 44.4328 123.997 43.8657C121.609 43.2688 119.64 42.4928 118.088 41.5378L122.161 33.7483C125.534 35.6882 129.056 36.6581 132.727 36.6581C134.07 36.6581 135.099 36.494 135.815 36.1657C136.532 35.8374 136.89 35.3897 136.89 34.8227C136.89 34.2855 136.517 33.8527 135.771 33.5244C135.054 33.1961 133.905 32.838 132.324 32.45C130.234 31.9128 128.503 31.3756 127.131 30.8384C125.758 30.2713 124.549 29.4207 123.504 28.2866C122.49 27.1227 121.982 25.6006 121.982 23.7203C121.982 21.3626 122.609 19.3033 123.863 17.5424C125.146 15.7517 126.981 14.3789 129.369 13.4238C131.757 12.439 134.577 11.9465 137.83 11.9465C140.158 11.9465 142.322 12.1853 144.321 12.6628C146.351 13.1105 148.097 13.7671 149.559 14.6326L145.754 22.3326C144.53 21.5566 143.172 20.9746 141.68 20.5866C140.218 20.1986 138.71 20.0047 137.159 20.0047C135.696 20.0047 134.562 20.2136 133.756 20.6314C132.95 21.0492 132.547 21.5417 132.547 22.1087C132.547 22.6758 132.906 23.1234 133.622 23.4517C134.368 23.78 135.577 24.1382 137.248 24.5262C139.277 25.0037 140.979 25.511 142.352 26.0483C143.754 26.5855 144.963 27.4211 145.978 28.5552C146.992 29.6893 147.5 31.1816 147.5 33.032C147.5 35.3599 146.858 37.4043 145.575 39.1651C144.291 40.926 142.456 42.2988 140.068 43.2837C137.681 44.2388 134.875 44.7163 131.652 44.7163Z" fill="#A0E3F9"/>
<path d="M42.4791 12.6628L36.2116 44H27.5267L18.5285 29.4058L15.6186 44H5.32208L11.5895 12.6628H20.2744L29.2727 27.257L32.1825 12.6628H42.4791ZM56.344 20.6314L55.6277 24.3023H68.8789L67.3568 31.9128H54.0609L53.2551 36.0314H68.9684L67.3568 44H41.3022L47.5696 12.6628H73.0423L71.4307 20.6314H56.344ZM128.244 12.6628L111.949 44H100.623L98.8322 27.4808L90.2368 44H78.9107L75.1502 12.6628H85.581L87.5955 30.525L96.9072 12.6628H106.622L108.412 30.7936L117.858 12.6628H128.244ZM136.768 44.7163C134.052 44.7163 131.501 44.4328 129.113 43.8657C126.726 43.2688 124.756 42.4928 123.204 41.5378L127.278 33.7483C130.65 35.6882 134.172 36.6581 137.843 36.6581C139.186 36.6581 140.215 36.494 140.932 36.1657C141.648 35.8374 142.006 35.3897 142.006 34.8227C142.006 34.2855 141.633 33.8527 140.887 33.5244C140.171 33.1961 139.022 32.838 137.44 32.45C135.351 31.9128 133.62 31.3756 132.247 30.8384C130.874 30.2713 129.665 29.4207 128.621 28.2866C127.606 27.1227 127.099 25.6006 127.099 23.7203C127.099 21.3626 127.725 19.3033 128.979 17.5424C130.262 15.7517 132.098 14.3789 134.485 13.4238C136.873 12.439 139.693 11.9465 142.946 11.9465C145.274 11.9465 147.438 12.1853 149.438 12.6628C151.467 13.1105 153.213 13.7671 154.675 14.6326L150.87 22.3326C149.646 21.5566 148.289 20.9746 146.796 20.5866C145.334 20.1986 143.827 20.0047 142.275 20.0047C140.812 20.0047 139.678 20.2136 138.872 20.6314C138.067 21.0492 137.664 21.5417 137.664 22.1087C137.664 22.6758 138.022 23.1234 138.738 23.4517C139.484 23.78 140.693 24.1382 142.364 24.5262C144.394 25.0037 146.095 25.511 147.468 26.0483C148.871 26.5855 150.079 27.4211 151.094 28.5552C152.109 29.6893 152.616 31.1816 152.616 33.032C152.616 35.3599 151.974 37.4043 150.691 39.1651C149.408 40.926 147.572 42.2988 145.185 43.2837C142.797 44.2388 139.992 44.7163 136.768 44.7163Z" fill="white"/>
</svg>
